<svg xmlns="http://www.w3.org/2000/svg" xmlns:xlink="http://www.w3.org/1999/xlink" width="1920" height="1080" viewBox="0 0 1920 1080"><defs><clipPath id="b"><rect width="1920" height="1080"/></clipPath></defs><g id="a" clip-path="url(#b)"><g fill="#121212" stroke="#707070" stroke-width="1"><rect width="1920" height="1080" rx="42" stroke="none"/><rect x="0.5" y="0.5" width="1919" height="1079" rx="41.5" fill="none"/></g><g stroke="#303030" stroke-width="1"><path d="M42,0H270a0,0,0,0,1,0,0V900a0,0,0,0,1,0,0H0a0,0,0,0,1,0,0V42A42,42,0,0,1,42,0Z" stroke="none"/><path d="M42,.5H269a.5.5,0,0,1,.5.5V899a.5.5,0,0,1-.5.5H1a.5.5,0,0,1-.5-.5V42A41.5,41.5,0,0,1,42,.5Z" fill="none"/></g><g transform="translate(0 899)" fill="#181818" stroke="#303030" stroke-width="1"><path d="M0,0H1920a0,0,0,0,1,0,0V138a42,42,0,0,1-42,42H42A42,42,0,0,1,0,138V0A0,0,0,0,1,0,0Z" stroke="none"/><path d="M1,.5H1919a.5.5,0,0,1,.5.5V138a41.5,41.5,0,0,1-41.5,41.5H42A41.5,41.5,0,0,1,.5,138V1A.5.5,0,0,1,1,.5Z" fill="none"/></g><path d="M0,0H1608a42,42,0,0,1,42,42v58a0,0,0,0,1,0,0H0a0,0,0,0,1,0,0V0A0,0,0,0,1,0,0Z" transform="translate(270)" fill="#30305a"/><rect width="435" height="559" rx="40" transform="translate(295 122)" fill="#181818"/><rect width="435" height="467" rx="40" transform="translate(755 122)" fill="#2a2a2a"/><rect width="435" height="693" rx="40" transform="translate(1215 122)" fill="#5a5a5a"/><rect width="256" height="37" rx="5" transform="translate(310 167)" fill="#fff"/><rect width="157" height="37" rx="5" transform="translate(310 228)" fill="#7169ff"/><rect width="282" height="37" rx="5" transform="translate(310 289)" fill="#a7a7a7"/><rect width="306" height="37" rx="5" transform="translate(1232 167)" fill="#fff"/><rect width="201" height="37" rx="5" transform="translate(1232 228)" fill="#7169ff"/><rect width="236" height="37" rx="5" transform="translate(1232 289)" fill="#a7a7a7"/><rect width="163" height="37" rx="5" transform="translate(772 167)" fill="#fff"/><rect width="219" height="37" rx="5" transform="translate(772 228)" fill="#7169ff"/><rect width="188" height="37" rx="5" transform="translate(772 289)" fill="#a7a7a7"/></g></svg>