<svg xmlns="http://www.w3.org/2000/svg" xmlns:xlink="http://www.w3.org/1999/xlink" width="1920" height="1080" viewBox="0 0 1920 1080"><defs><linearGradient id="a" x2="1" y2="1" gradientUnits="objectBoundingBox"><stop offset="0" stop-color="#f956b3"/><stop offset="1" stop-color="#e68114"/></linearGradient><linearGradient id="b" y1="1" x2="1" gradientUnits="objectBoundingBox"><stop offset="0" stop-color="#9a0000"/><stop offset="1" stop-color="#0b0047"/></linearGradient><linearGradient id="c" x2="1" y2="1" gradientUnits="objectBoundingBox"><stop offset="0" stop-opacity="0.6"/><stop offset="1" stop-opacity="0.302"/></linearGradient><clipPath id="g"><rect width="1920" height="1080"/></clipPath></defs><g id="f" clip-path="url(#g)"><rect width="1920" height="1080" fill="url(#a)"/><path d="M1,1V1079H1919V1H1M0,0H1920V1080H0Z" fill="#707070"/><rect width="270" height="900" fill="rgba(61,61,61,0.69)"/><path d="M1,1V899H269V1H1M0,0H270V900H0Z" fill="#303030"/><rect width="1920" height="180" transform="translate(0 899)" fill="rgba(61,61,61,0.69)"/><path d="M1,1V179H1919V1H1M0,0H1920V180H0Z" transform="translate(0 899)" fill="#303030"/><rect width="1650" height="100" transform="translate(270)" fill="#892b68"/><rect width="435" height="559" rx="40" transform="translate(295 122)" fill="rgba(61,61,61,0.69)"/><rect width="435" height="467" rx="40" transform="translate(755 122)" fill="rgba(255,255,255,0.1)"/><rect width="435" height="693" rx="40" transform="translate(1215 122)" fill="rgba(255,255,255,0.3)"/><rect width="256" height="37" rx="5" transform="translate(310 167)" fill="#fff"/><rect width="157" height="37" rx="5" transform="translate(310 228)" fill="#ffd100"/><rect width="282" height="37" rx="5" transform="translate(310 289)" fill="#d7d7d7"/><rect width="306" height="37" rx="5" transform="translate(1232 167)" fill="#fff"/><rect width="201" height="37" rx="5" transform="translate(1232 228)" fill="#ffd100"/><rect width="236" height="37" rx="5" transform="translate(1232 289)" fill="#d7d7d7"/><rect width="163" height="37" rx="5" transform="translate(772 167)" fill="#fff"/><rect width="219" height="37" rx="5" transform="translate(772 228)" fill="#ffd100"/><rect width="188" height="37" rx="5" transform="translate(772 289)" fill="#d7d7d7"/><rect width="1920" height="1080" fill="url(#b)"/><rect width="1650" height="100" transform="translate(270)" fill="#0b0047"/><rect width="435" height="467" rx="40" transform="translate(755 122)" fill="rgba(255,255,255,0.1)"/><rect width="435" height="693" rx="40" transform="translate(1215 122)" fill="rgba(255,255,255,0.3)"/><rect width="435" height="559" rx="40" transform="translate(295 122)" fill="url(#c)"/><rect width="256" height="37" rx="5" transform="translate(310 167)" fill="#fff"/><rect width="157" height="37" rx="5" transform="translate(310 228)" fill="#d56470"/><rect width="282" height="37" rx="5" transform="translate(310 289)" fill="#d7d7d7"/><rect width="306" height="37" rx="5" transform="translate(1232 167)" fill="#fff"/><rect width="201" height="37" rx="5" transform="translate(1232 228)" fill="#d56470"/><rect width="236" height="37" rx="5" transform="translate(1232 289)" fill="#d7d7d7"/><rect width="163" height="37" rx="5" transform="translate(772 167)" fill="#fff"/><rect width="219" height="37" rx="5" transform="translate(772 228)" fill="#d56470"/><rect width="188" height="37" rx="5" transform="translate(772 289)" fill="#d7d7d7"/><rect width="1920" height="180" transform="translate(0 900)" fill="url(#c)"/><path d="M1,1V179H1919V1H1M0,0H1920V180H0Z" transform="translate(0 900)" fill="#303030"/><rect width="270" height="900" fill="url(#c)"/><path d="M1,1V899H269V1H1M0,0H270V900H0Z" fill="#303030"/></g></svg>