<?xml version="1.0" encoding="UTF-8"?><!--
  - Copyright (c) 2023, reAudioPlayer ONE.
  - Licenced under the GNU General Public License v3.0
  -->

<svg id="uuid-d20fced6-b256-4c48-ba79-657674386f45" xmlns="http://www.w3.org/2000/svg" viewBox="0 0 809.48 395.8"><path d="M80.09,254.67c-4.84,0-9.04-1.72-12.6-5.16-3.57-3.43-5.35-7.7-5.35-12.79V79.04c0-4.84,1.78-8.97,5.35-12.41,3.56-3.44,7.76-5.16,12.6-5.16s8.97,1.72,12.41,5.16c3.43,3.43,5.15,7.57,5.15,12.41V236.72c0,5.09-1.72,9.36-5.15,12.79-3.44,3.44-7.58,5.16-12.41,5.16Zm70.63,61.47c-4.84,0-8.97-1.78-12.41-5.34-3.44-3.57-5.16-7.77-5.16-12.6V17.57c0-4.58,1.72-8.66,5.16-12.22,3.43-3.56,7.57-5.34,12.41-5.34s9.04,1.78,12.6,5.34c3.56,3.57,5.34,7.64,5.34,12.22V298.2c0,4.83-1.78,9.03-5.34,12.6-3.56,3.56-7.76,5.34-12.6,5.34ZM17.38,193.2c-4.79,0-8.88-1.7-12.27-5.1-3.4-3.4-5.1-7.61-5.1-12.65v-35.13c0-4.79,1.7-8.88,5.1-12.27,3.4-3.4,7.49-5.1,12.27-5.1s9,1.7,12.66,5.1c3.65,3.4,5.48,7.49,5.48,12.27v35.33c0,3.92-1.25,7.85-3.85,10.77-4.01,4.51-8.78,6.77-14.28,6.77Zm195.29,60.46c-4.78,0-8.87-1.7-12.28-5.11-3.4-3.4-5.1-7.62-5.1-12.66V79.86c0-4.79,1.7-8.88,5.1-12.28,3.4-3.4,7.5-5.11,12.28-5.11s9.01,1.7,12.66,5.11c3.65,3.4,5.48,7.49,5.48,12.28V235.9c0,5.04-1.76,9.26-5.29,12.66-3.52,3.4-7.81,5.11-12.85,5.11Zm62.52-60.46c-4.78,0-8.94-1.7-12.46-5.1-3.52-3.4-5.29-7.61-5.29-12.65v-35.13c0-4.79,1.76-8.88,5.29-12.27,3.53-3.4,7.68-5.1,12.46-5.1s8.94,1.7,12.46,5.1c3.53,3.4,5.29,7.49,5.29,12.27v35.13c0,5.03-1.76,9.25-5.29,12.65-3.52,3.4-7.68,5.1-12.46,5.1Z"/><g><path d="M436.15,266.18c-10.94-6.13-19.61-14.63-26-25.51-6.39-10.88-9.59-23.17-9.59-36.88s3.2-26,9.59-36.88c6.39-10.88,15.06-19.34,26-25.41,10.94-6.06,22.94-9.1,35.99-9.1s25.21,3.03,36.09,9.1c10.88,6.06,19.48,14.53,25.8,25.41,6.33,10.88,9.49,23.17,9.49,36.88s-3.16,26-9.49,36.88-14.96,19.38-25.9,25.51c-10.94,6.13-22.94,9.19-35.99,9.19s-25.05-3.06-35.99-9.19Zm59.42-36.48c5.73-6.46,8.6-15.09,8.6-25.9s-2.87-19.8-8.6-26.2c-5.73-6.39-13.54-9.59-23.43-9.59s-17.87,3.2-23.53,9.59c-5.67,6.4-8.5,15.13-8.5,26.2s2.83,19.61,8.5,26c5.67,6.4,13.51,9.59,23.53,9.59s17.7-3.23,23.43-9.69Z"/><path d="M690.05,273.99h-38.76l-51.61-77.91v77.91h-38.76V134.58h38.76l51.61,78.9v-78.9h38.76v139.41Z"/><path d="M750.95,165.63v22.74h44.49v29.46h-44.49v25.11h50.42v31.04h-89.18V134.58h89.18v31.04h-50.42Z"/></g><g><path d="M414.68,76.05c1.71-1,3.8-1.5,6.27-1.5v5.43h-1.39c-5.89,0-8.84,3.2-8.84,9.59v17.21h-5.25v-31.65h5.25v5.14c.92-1.81,2.24-3.21,3.96-4.22Z"/><path d="M455.71,92.91h-25.29c.19,3.12,1.26,5.55,3.21,7.31,1.94,1.75,4.3,2.63,7.07,2.63,2.27,0,4.17-.53,5.69-1.59,1.52-1.06,2.59-2.47,3.21-4.24h5.66c-.85,3.04-2.54,5.52-5.08,7.42s-5.7,2.86-9.47,2.86c-3,0-5.69-.67-8.06-2.02-2.37-1.35-4.23-3.26-5.57-5.75-1.35-2.48-2.02-5.36-2.02-8.63s.65-6.14,1.96-8.6c1.31-2.46,3.15-4.36,5.52-5.69s5.09-1.99,8.17-1.99,5.66,.65,7.97,1.96c2.31,1.31,4.09,3.11,5.34,5.4,1.25,2.29,1.88,4.88,1.88,7.77,0,1-.06,2.06-.17,3.18Zm-6.58-9.44c-.89-1.44-2.09-2.54-3.61-3.29-1.52-.75-3.21-1.13-5.05-1.13-2.66,0-4.92,.85-6.79,2.54-1.87,1.69-2.94,4.04-3.21,7.05h19.98c0-2-.44-3.72-1.33-5.17Z"/><path d="M486.61,97.82h-17.56l-3.23,8.95h-5.54l14.55-40.02h6.06l14.5,40.02h-5.54l-3.23-8.95Zm-1.5-4.27l-7.28-20.33-7.28,20.33h14.55Z"/><path d="M529.81,75.13v31.65h-5.25v-4.68c-1,1.62-2.4,2.88-4.19,3.78-1.79,.9-3.76,1.36-5.92,1.36-2.46,0-4.68-.51-6.64-1.53-1.96-1.02-3.51-2.55-4.65-4.59-1.14-2.04-1.7-4.52-1.7-7.45v-18.54h5.2v17.85c0,3.12,.79,5.52,2.37,7.19,1.58,1.67,3.73,2.51,6.47,2.51s5.02-.87,6.64-2.6,2.43-4.25,2.43-7.57v-17.38h5.25Z"/><path d="M538.7,82.32c1.31-2.44,3.11-4.34,5.4-5.69,2.29-1.35,4.86-2.02,7.71-2.02,2.46,0,4.75,.57,6.87,1.7,2.12,1.14,3.73,2.63,4.85,4.48v-16.75h5.31v42.74h-5.31v-5.95c-1.04,1.89-2.58,3.44-4.62,4.65s-4.43,1.82-7.16,1.82-5.36-.69-7.65-2.08c-2.29-1.39-4.09-3.33-5.4-5.83-1.31-2.5-1.96-5.35-1.96-8.55s.65-6.07,1.96-8.52Zm23.39,2.34c-.96-1.77-2.26-3.13-3.9-4.07-1.64-.94-3.44-1.42-5.4-1.42s-3.75,.46-5.37,1.39-2.91,2.27-3.87,4.04c-.96,1.77-1.44,3.85-1.44,6.24s.48,4.53,1.44,6.32c.96,1.79,2.25,3.16,3.87,4.1,1.62,.94,3.41,1.42,5.37,1.42s3.76-.47,5.4-1.42c1.64-.94,2.94-2.31,3.9-4.1,.96-1.79,1.44-3.88,1.44-6.27s-.48-4.47-1.44-6.24Z"/><path d="M577.91,68.95c-.69-.69-1.04-1.54-1.04-2.54s.35-1.85,1.04-2.54,1.54-1.04,2.54-1.04,1.78,.35,2.45,1.04,1.01,1.54,1.01,2.54-.34,1.85-1.01,2.54-1.49,1.04-2.45,1.04-1.85-.35-2.54-1.04Zm5.08,6.18v31.65h-5.25v-31.65h5.25Z"/><path d="M597.69,105.27c-2.41-1.35-4.29-3.26-5.66-5.75-1.37-2.48-2.05-5.36-2.05-8.63s.7-6.09,2.11-8.58,3.32-4.39,5.75-5.72c2.43-1.33,5.14-1.99,8.14-1.99s5.72,.66,8.14,1.99,4.34,3.23,5.75,5.69c1.41,2.46,2.11,5.33,2.11,8.6s-.72,6.15-2.17,8.63c-1.44,2.48-3.4,4.4-5.86,5.75-2.46,1.35-5.2,2.02-8.2,2.02s-5.65-.67-8.06-2.02Zm13.37-3.93c1.65-.89,2.99-2.21,4.01-3.98,1.02-1.77,1.53-3.93,1.53-6.47s-.5-4.7-1.5-6.47c-1-1.77-2.31-3.09-3.93-3.96-1.62-.87-3.37-1.3-5.25-1.3s-3.69,.43-5.28,1.3c-1.6,.87-2.88,2.19-3.84,3.96-.96,1.77-1.44,3.93-1.44,6.47s.47,4.76,1.41,6.53c.94,1.77,2.2,3.09,3.78,3.96,1.58,.87,3.31,1.3,5.2,1.3s3.66-.44,5.31-1.33Z"/><path d="M652.38,86.65c-2.29,2.21-5.79,3.32-10.48,3.32h-7.74v16.81h-5.25v-40.25h12.99c4.54,0,8,1.1,10.37,3.29,2.37,2.19,3.55,5.02,3.55,8.49s-1.15,6.13-3.44,8.35Zm-4.01-2.92c1.39-1.27,2.08-3.08,2.08-5.43,0-4.97-2.85-7.45-8.55-7.45h-7.74v14.78h7.74c2.93,0,5.08-.64,6.47-1.91Z"/><path d="M667.6,64.04v42.74h-5.25v-42.74h5.25Z"/><path d="M676.55,82.32c1.31-2.44,3.11-4.34,5.4-5.69,2.29-1.35,4.84-2.02,7.65-2.02s5.18,.6,7.22,1.79c2.04,1.19,3.56,2.7,4.56,4.5v-5.78h5.31v31.65h-5.31v-5.89c-1.04,1.85-2.59,3.38-4.65,4.59-2.06,1.21-4.46,1.82-7.19,1.82s-5.35-.69-7.62-2.08c-2.27-1.39-4.06-3.33-5.37-5.83-1.31-2.5-1.96-5.35-1.96-8.55s.65-6.07,1.96-8.52Zm23.39,2.34c-.96-1.77-2.26-3.13-3.9-4.07-1.64-.94-3.44-1.42-5.4-1.42s-3.75,.46-5.37,1.39-2.91,2.27-3.87,4.04c-.96,1.77-1.44,3.85-1.44,6.24s.48,4.53,1.44,6.32c.96,1.79,2.25,3.16,3.87,4.1,1.62,.94,3.41,1.42,5.37,1.42s3.76-.47,5.4-1.42c1.64-.94,2.94-2.31,3.9-4.1,.96-1.79,1.44-3.88,1.44-6.27s-.48-4.47-1.44-6.24Z"/><path d="M742.85,75.13l-19.06,46.55h-5.43l6.24-15.25-12.76-31.3h5.83l9.93,25.64,9.82-25.64h5.43Z"/><path d="M776.8,92.91h-25.29c.19,3.12,1.26,5.55,3.21,7.31,1.94,1.75,4.3,2.63,7.07,2.63,2.27,0,4.17-.53,5.69-1.59,1.52-1.06,2.59-2.47,3.21-4.24h5.66c-.85,3.04-2.54,5.52-5.08,7.42s-5.7,2.86-9.47,2.86c-3,0-5.69-.67-8.06-2.02-2.37-1.35-4.23-3.26-5.57-5.75-1.35-2.48-2.02-5.36-2.02-8.63s.65-6.14,1.96-8.6c1.31-2.46,3.15-4.36,5.51-5.69s5.09-1.99,8.17-1.99,5.66,.65,7.97,1.96c2.31,1.31,4.09,3.11,5.34,5.4,1.25,2.29,1.88,4.88,1.88,7.77,0,1-.06,2.06-.17,3.18Zm-6.58-9.44c-.89-1.44-2.09-2.54-3.61-3.29-1.52-.75-3.21-1.13-5.05-1.13-2.66,0-4.92,.85-6.79,2.54-1.87,1.69-2.94,4.04-3.21,7.05h19.98c0-2-.44-3.72-1.33-5.17Z"/><path d="M793.12,76.05c1.71-1,3.8-1.5,6.27-1.5v5.43h-1.39c-5.89,0-8.84,3.2-8.84,9.59v17.21h-5.25v-31.65h5.25v5.14c.92-1.81,2.24-3.21,3.96-4.22Z"/></g></svg>