<svg xmlns="http://www.w3.org/2000/svg" xmlns:xlink="http://www.w3.org/1999/xlink" width="1920" height="1080" viewBox="0 0 1920 1080"><defs><clipPath id="b"><rect width="1920" height="1080"/></clipPath></defs><g id="a" clip-path="url(#b)"><rect width="1920" height="1080" fill="#1e1e1e"/><rect width="270" height="900" fill="#374148"/><path d="M1,1V899H269V1H1M0,0H270V900H0Z" fill="#303030"/><rect width="1920" height="180" transform="translate(0 899)" fill="#374148"/><path d="M1,1V179H1919V1H1M0,0H1920V180H0Z" transform="translate(0 899)" fill="#303030"/><rect width="1650" height="100" transform="translate(270)" fill="#e85454"/><rect width="435" height="559" rx="40" transform="translate(295 122)" fill="#374148"/><rect width="435" height="467" rx="40" transform="translate(755 122)" fill="rgba(55,65,72,0.47)"/><rect width="435" height="693" rx="40" transform="translate(1215 122)" fill="#374148"/><rect width="256" height="37" rx="5" transform="translate(310 167)" fill="#f5f5f5"/><rect width="157" height="37" rx="5" transform="translate(310 228)" fill="#e85454"/><rect width="282" height="37" rx="5" transform="translate(310 289)" fill="#c2bebe"/><rect width="306" height="37" rx="5" transform="translate(1232 167)" fill="#f5f5f5"/><rect width="201" height="37" rx="5" transform="translate(1232 228)" fill="#e85454"/><rect width="236" height="37" rx="5" transform="translate(1232 289)" fill="#c2bebe"/><rect width="163" height="37" rx="5" transform="translate(772 167)" fill="#f5f5f5"/><rect width="219" height="37" rx="5" transform="translate(772 228)" fill="#e85454"/><rect width="188" height="37" rx="5" transform="translate(772 289)" fill="#c2bebe"/></g></svg>