<svg xmlns="http://www.w3.org/2000/svg" xmlns:xlink="http://www.w3.org/1999/xlink" width="1920" height="1080" viewBox="0 0 1920 1080"><defs><clipPath id="b"><rect width="1920" height="1080"/></clipPath></defs><g id="a" clip-path="url(#b)"><rect width="1920" height="1080" rx="42" fill="#fff"/><rect width="270" height="900" fill="#c2c2c2"/><rect width="1920" height="180" transform="translate(0 899)" fill="#b2b2b2"/><rect width="1650" height="100" transform="translate(270)" fill="#349d58"/><rect width="435" height="559" rx="40" transform="translate(295 122)" fill="rgba(0,0,0,0.4)"/><rect width="435" height="467" rx="40" transform="translate(755 122)" fill="rgba(0,0,0,0.1)"/><rect width="435" height="693" rx="40" transform="translate(1215 122)" fill="rgba(0,0,0,0.3)"/><rect width="256" height="37" rx="5" transform="translate(310 167)"/><rect width="157" height="37" rx="5" transform="translate(310 228)" fill="#18a74b"/><rect width="282" height="37" rx="5" transform="translate(310 289)" fill="#545454"/><rect width="306" height="37" rx="5" transform="translate(1232 167)"/><rect width="201" height="37" rx="5" transform="translate(1232 228)" fill="#18a74b"/><rect width="236" height="37" rx="5" transform="translate(1232 289)" fill="#545454"/><rect width="163" height="37" rx="5" transform="translate(772 167)"/><rect width="219" height="37" rx="5" transform="translate(772 228)" fill="#18a74b"/><rect width="188" height="37" rx="5" transform="translate(772 289)" fill="#545454"/></g></svg>